# xmcd
#
# Track frame offsets: 
#        150
#        25240
#        47795
#        81717
#        101480
#        127222
#        147942
#        177962
#        191292
#        231067
#        256172
#        284210
#        315675
#
# Disc length: 4558 seconds
#
# Revision: 4
# Processed by: cddbd v1.5.2PL0 Copyright (c) Steve Scherf et al.
# Submitted via: ExactAudioCopyFreeDBPlugin 1.0
#
DISCID=c111cc0d
DTITLE=Gary Moore - Blues Alive
DYEAR=1993
DGENRE=Blues
TTITLE0=Cold Day in Hell
TTITLE1=Walking By Myself
TTITLE2=Story of the Blues
TTITLE3=Oh Pretty Woman
TTITLE4=Separate Ways
TTITLE5=Too Tired
TTITLE6=Still Got the Blues (For You)
TTITLE7=Since I Met You Baby
TTITLE8=The Sky Is Crying
TTITLE9=Further On Up the Road
TTITLE10=King of the Blues
TTITLE11=Parisienne Walkways
TTITLE12=Jumpin' At Shadows
EXTD=
EXTT0=
EXTT1=
EXTT2=
EXTT3=
EXTT4=
EXTT5=
EXTT6=
EXTT7=
EXTT8=
EXTT9=
EXTT10=
EXTT11=
EXTT12=
PLAYORDER=
